<svg width="64" height="66" viewBox="0 0 64 66" fill="none" xmlns="http://www.w3.org/2000/svg">
    <rect width="64" height="66" rx="20" fill="#5865F2"/>
    <path d="M43.6687 22.1827C47.4398 27.941 49.3022 34.4363 48.606 41.9139C48.6031 41.9455 48.5872 41.9746 48.5622 41.9937C45.7064 44.1715 42.9395 45.4932 40.2115 46.3697C40.1902 46.3764 40.1675 46.376 40.1465 46.3686C40.1254 46.3612 40.1071 46.3472 40.0942 46.3285C39.4639 45.4177 38.8913 44.4576 38.3895 43.4493C38.3607 43.3899 38.387 43.3184 38.4463 43.295C39.3558 42.9391 40.2206 42.5125 41.0525 42.0075C41.118 41.9677 41.1222 41.8701 41.0617 41.8233C40.8851 41.6872 40.7102 41.5441 40.5429 41.4011C40.5116 41.3747 40.4694 41.3694 40.4339 41.3872C35.0333 43.9773 29.1172 43.9773 23.6527 41.3872C23.6173 41.3708 23.5751 41.3764 23.5446 41.4024C23.3777 41.5454 23.2024 41.6872 23.0275 41.8233C22.967 41.8701 22.972 41.9677 23.0379 42.0075C23.8698 42.503 24.7346 42.9391 25.6429 43.2967C25.7017 43.3201 25.7297 43.3899 25.7005 43.4493C25.2096 44.4589 24.6369 45.419 23.995 46.3298C23.967 46.3666 23.9211 46.3835 23.8777 46.3697C21.1626 45.4932 18.3957 44.1715 15.5399 41.9937C15.5161 41.9746 15.499 41.9442 15.4965 41.9126C14.9147 35.4446 16.1005 28.8956 20.4292 22.1814C20.4397 22.1636 20.4555 22.1497 20.4739 22.1415C22.6038 21.1263 24.8857 20.3794 27.2707 19.9528C27.3141 19.9459 27.3575 19.9667 27.38 20.0066C27.6747 20.5485 28.0115 21.2433 28.2394 21.8112C30.7534 21.4124 33.3066 21.4124 35.8731 21.8112C36.101 21.2555 36.4261 20.5485 36.7196 20.0066C36.73 19.9868 36.7462 19.971 36.7659 19.9613C36.7855 19.9517 36.8076 19.9487 36.8289 19.9528C39.2151 20.3807 41.497 21.1276 43.6253 22.1415C43.6441 22.1497 43.6595 22.1636 43.6687 22.1827ZM29.5175 34.4806C29.5438 32.5685 28.2015 30.9863 26.5165 30.9863C24.8452 30.9863 23.5158 32.5546 23.5158 34.4806C23.5158 36.4061 24.8715 37.9744 26.5165 37.9744C28.1881 37.9744 29.5175 36.4061 29.5175 34.4806ZM40.6126 34.4806C40.6389 32.5685 39.2965 30.9863 37.6119 30.9863C35.9403 30.9863 34.6109 32.5546 34.6109 34.4806C34.6109 36.4061 35.9666 37.9744 37.6119 37.9744C39.2965 37.9744 40.6126 36.4061 40.6126 34.4806Z" fill="white"/>
</svg>
