<svg width="64" height="66" viewBox="0 0 64 66" fill="none" xmlns="http://www.w3.org/2000/svg">
    <rect width="64" height="66" rx="20" fill="url(#paint0_linear_4_2047)"/>
    <path d="M26.674 33.0846C26.674 30.0444 29.0625 27.5792 32.0097 27.5792C34.9569 27.5792 37.3467 30.0444 37.3467 33.0846C37.3467 36.1247 34.9569 38.5899 32.0097 38.5899C29.0625 38.5899 26.674 36.1247 26.674 33.0846ZM23.789 33.0846C23.789 37.7681 27.4694 41.5646 32.0097 41.5646C36.55 41.5646 40.2305 37.7681 40.2305 33.0846C40.2305 28.401 36.55 24.6045 32.0097 24.6045C27.4694 24.6045 23.789 28.401 23.789 33.0846ZM38.6348 24.2682C38.6346 24.6602 38.7471 25.0434 38.9581 25.3694C39.1691 25.6954 39.469 25.9495 39.82 26.0996C40.171 26.2498 40.5573 26.2892 40.9299 26.2129C41.3026 26.1365 41.645 25.9479 41.9138 25.6709C42.1826 25.3939 42.3657 25.0408 42.44 24.6564C42.5143 24.272 42.4764 23.8735 42.3311 23.5114C42.1858 23.1492 41.9397 22.8396 41.6239 22.6217C41.308 22.4038 40.9366 22.2874 40.5567 22.2873H40.5559C40.0466 22.2875 39.5582 22.4963 39.198 22.8677C38.8378 23.2391 38.6352 23.7428 38.6348 24.2682ZM25.5418 46.5271C23.981 46.4538 23.1326 46.1856 22.5688 45.959C21.8213 45.6588 21.288 45.3013 20.7273 44.7237C20.1666 44.1461 19.8195 43.5965 19.5298 42.8254C19.31 42.2441 19.05 41.3687 18.9791 39.7586C18.9014 38.0178 18.8859 37.4949 18.8859 33.0847C18.8859 28.6745 18.9027 28.153 18.9791 26.4108C19.0501 24.8007 19.3121 23.927 19.5298 23.3439C19.8208 22.5729 20.1674 22.0228 20.7273 21.4444C21.2873 20.8659 21.8201 20.5079 22.5688 20.2091C23.1323 19.9823 23.981 19.7141 25.5418 19.641C27.2294 19.5609 27.7363 19.5449 32.0097 19.5449C36.2831 19.5449 36.7906 19.5622 38.4795 19.641C40.0404 19.7143 40.8874 19.9845 41.4526 20.2091C42.2 20.5079 42.7333 20.8667 43.2941 21.4444C43.8548 22.022 44.2006 22.5729 44.4916 23.3439C44.7114 23.9253 44.9714 24.8007 45.0423 26.4108C45.1199 28.153 45.1354 28.6745 45.1354 33.0847C45.1354 37.4949 45.1199 38.0164 45.0423 39.7586C44.9712 41.3687 44.7099 42.2439 44.4916 42.8254C44.2006 43.5965 43.854 44.1466 43.2941 44.7237C42.7341 45.3008 42.2 45.6588 41.4526 45.959C40.889 46.1857 40.0404 46.4539 38.4795 46.5271C36.792 46.6072 36.2851 46.6231 32.0097 46.6231C27.7344 46.6231 27.2289 46.6072 25.5418 46.5271ZM25.4093 16.6699C23.705 16.75 22.5404 17.0287 21.5233 17.437C20.47 17.8586 19.5783 18.4242 18.6873 19.3418C17.7963 20.2595 17.2494 21.1808 16.8407 22.2673C16.4449 23.3171 16.1747 24.5178 16.0971 26.2759C16.0182 28.0367 16.0001 28.5997 16.0001 33.0846C16.0001 37.5694 16.0182 38.1324 16.0971 39.8932C16.1747 41.6514 16.4449 42.852 16.8407 43.9018C17.2494 44.9877 17.7964 45.91 18.6873 46.8273C19.5782 47.7446 20.47 48.3094 21.5233 48.7321C22.5423 49.1404 23.705 49.4191 25.4093 49.4992C27.1172 49.5793 27.662 49.5992 32.0097 49.5992C36.3574 49.5992 36.9032 49.5806 38.6102 49.4992C40.3146 49.4191 41.4784 49.1404 42.4961 48.7321C43.5488 48.3094 44.4411 47.745 45.3321 46.8273C46.2232 45.9096 46.7689 44.9877 47.1788 43.9018C47.5745 42.852 47.846 41.6513 47.9224 39.8932C48 38.131 48.018 37.5694 48.018 33.0846C48.018 28.5997 48 28.0367 47.9224 26.2759C47.8448 24.5177 47.5745 23.3165 47.1788 22.2673C46.7689 21.1814 46.2218 20.261 45.3321 19.3418C44.4425 18.4227 43.5488 17.8586 42.4974 17.437C41.4784 17.0287 40.3145 16.7486 38.6114 16.6699C36.9044 16.5898 36.3587 16.5699 32.011 16.5699C27.6633 16.5699 27.1172 16.5885 25.4093 16.6699Z" fill="white"/>
    <defs>
        <linearGradient id="paint0_linear_4_2047" x1="62.7699" y1="66" x2="-3.19884" y2="2.03029" gradientUnits="userSpaceOnUse">
            <stop stop-color="#FBE18A"/>
            <stop offset="0.21" stop-color="#FCBB45"/>
            <stop offset="0.38" stop-color="#F75274"/>
            <stop offset="0.52" stop-color="#D53692"/>
            <stop offset="0.74" stop-color="#8F39CE"/>
            <stop offset="1" stop-color="#5B4FE9"/>
        </linearGradient>
    </defs>
</svg>
