<svg width="64" height="66" viewBox="0 0 64 66" fill="none" xmlns="http://www.w3.org/2000/svg">
    <rect width="64" height="66" rx="20" fill="#006699"/>
    <path d="M24.6382 46.3739V28.5454H18.8969V46.3739H24.6388H24.6382ZM21.7687 26.1116C23.7704 26.1116 25.0166 24.7426 25.0166 23.0317C24.9791 21.2818 23.7704 19.951 21.8068 19.951C19.8418 19.951 18.5585 21.2818 18.5585 23.0315C18.5585 24.7424 19.8042 26.1115 21.7311 26.1115H21.7683L21.7687 26.1116ZM27.816 46.3739H33.5568V36.4187C33.5568 35.8866 33.5943 35.353 33.7459 34.973C34.1608 33.9079 35.1054 32.8054 36.6918 32.8054C38.7687 32.8054 39.6 34.4402 39.6 36.8371V46.3739H45.3407V36.1515C45.3407 30.6756 42.5087 28.1274 38.7315 28.1274C35.6348 28.1274 34.2747 29.9139 33.519 31.1307H33.5573V28.546H27.8163C27.8912 30.2185 27.8159 46.3745 27.8159 46.3745L27.816 46.3739Z" fill="white"/>
</svg>
