<svg width="64" height="66" viewBox="0 0 64 66" fill="none" xmlns="http://www.w3.org/2000/svg">
    <rect width="64" height="66" rx="20" fill="#FF0000"/>
    <path d="M49.8004 23.9221C49.3826 22.3021 48.1465 21.0241 46.5737 20.5861C43.7301 19.8001 32.3207 19.8001 32.3207 19.8001C32.3207 19.8001 20.917 19.8001 18.0676 20.5861C16.5007 21.0181 15.2645 22.2961 14.8409 23.9221C14.0807 26.8621 14.0807 33.0001 14.0807 33.0001C14.0807 33.0001 14.0807 39.1381 14.8409 42.0781C15.2587 43.6981 16.4949 44.9761 18.0676 45.4141C20.917 46.2001 32.3207 46.2001 32.3207 46.2001C32.3207 46.2001 43.7301 46.2001 46.5737 45.4141C48.1407 44.9821 49.3768 43.7041 49.8004 42.0781C50.5607 39.1381 50.5607 33.0001 50.5607 33.0001C50.5607 33.0001 50.5607 26.8621 49.8004 23.9221Z" fill="white"/>
    <path d="M28.6761 38.6581L38.153 33.0001L28.6761 27.3421V38.6581Z" fill="#FF0000"/>
</svg>
