<svg width="876" height="193" viewBox="0 0 876 193" fill="none" xmlns="http://www.w3.org/2000/svg">
    <path d="M77.204 7.386L77.384 8.934L77.312 8.808C77.6 8.256 77.99 7.824 78.482 7.512C78.986 7.2 79.568 7.044 80.228 7.044C80.648 7.044 81.02 7.11 81.344 7.242C81.668 7.374 81.938 7.56 82.154 7.8C82.382 8.04 82.532 8.34 82.604 8.7L82.496 8.736C82.808 8.22 83.21 7.812 83.702 7.512C84.194 7.2 84.716 7.044 85.268 7.044C86.012 7.044 86.606 7.26 87.05 7.692C87.494 8.112 87.722 8.658 87.734 9.33V15H85.736V10.122C85.724 9.75 85.646 9.444 85.502 9.204C85.358 8.952 85.088 8.814 84.692 8.79C84.26 8.79 83.888 8.928 83.576 9.204C83.264 9.468 83.018 9.816 82.838 10.248C82.67 10.668 82.586 11.118 82.586 11.598V15H80.552V10.122C80.54 9.75 80.456 9.444 80.3 9.204C80.144 8.952 79.868 8.814 79.472 8.79C79.052 8.79 78.686 8.928 78.374 9.204C78.062 9.468 77.822 9.816 77.654 10.248C77.486 10.668 77.402 11.112 77.402 11.58V15H75.386V7.386H77.204ZM93.7072 15.198C92.9872 15.198 92.3332 15.048 91.7452 14.748C91.1692 14.448 90.7132 14.004 90.3772 13.416C90.0412 12.816 89.8732 12.078 89.8732 11.202C89.8732 10.338 90.0472 9.6 90.3952 8.988C90.7552 8.364 91.2232 7.884 91.7992 7.548C92.3872 7.212 93.0232 7.044 93.7072 7.044C94.4392 7.044 95.0272 7.188 95.4712 7.476C95.9272 7.764 96.2812 8.106 96.5332 8.502L96.4252 8.79L96.6232 7.386H98.4772V15H96.4612V13.146L96.6592 13.632C96.6112 13.704 96.5152 13.824 96.3712 13.992C96.2272 14.148 96.0292 14.322 95.7772 14.514C95.5252 14.706 95.2252 14.868 94.8772 15C94.5412 15.132 94.1512 15.198 93.7072 15.198ZM94.2652 13.542C94.6252 13.542 94.9492 13.476 95.2372 13.344C95.5372 13.212 95.7892 13.026 95.9932 12.786C96.2092 12.546 96.3652 12.258 96.4612 11.922V10.266C96.3652 9.954 96.2092 9.684 95.9932 9.456C95.7772 9.216 95.5132 9.03 95.2012 8.898C94.9012 8.766 94.5652 8.7 94.1932 8.7C93.7852 8.7 93.4072 8.802 93.0592 9.006C92.7112 9.21 92.4292 9.492 92.2132 9.852C92.0092 10.212 91.9072 10.626 91.9072 11.094C91.9072 11.55 92.0152 11.964 92.2312 12.336C92.4472 12.708 92.7352 13.002 93.0952 13.218C93.4552 13.434 93.8452 13.542 94.2652 13.542ZM107.561 14.298C107.225 14.574 106.811 14.796 106.319 14.964C105.839 15.12 105.353 15.198 104.861 15.198C104.021 15.198 103.283 15.036 102.647 14.712C102.011 14.376 101.513 13.914 101.153 13.326C100.805 12.726 100.631 12.012 100.631 11.184C100.631 10.356 100.817 9.642 101.189 9.042C101.573 8.442 102.071 7.986 102.683 7.674C103.307 7.35 103.967 7.188 104.663 7.188C105.299 7.188 105.863 7.278 106.355 7.458C106.847 7.626 107.273 7.86 107.633 8.16L106.625 9.474C106.433 9.318 106.181 9.174 105.869 9.042C105.569 8.898 105.227 8.826 104.843 8.826C104.435 8.826 104.063 8.928 103.727 9.132C103.403 9.336 103.139 9.618 102.935 9.978C102.743 10.326 102.647 10.728 102.647 11.184C102.647 11.616 102.749 12.012 102.953 12.372C103.157 12.732 103.439 13.02 103.799 13.236C104.159 13.44 104.573 13.542 105.041 13.542C105.341 13.542 105.617 13.5 105.869 13.416C106.133 13.32 106.361 13.194 106.553 13.038L107.561 14.298ZM109.628 15V0.959999H111.608V9.06L111.572 8.754C111.836 8.262 112.226 7.86 112.742 7.548C113.258 7.224 113.876 7.062 114.596 7.062C115.316 7.062 115.91 7.272 116.378 7.692C116.846 8.112 117.086 8.664 117.098 9.348V15H115.082V10.068C115.07 9.684 114.962 9.378 114.758 9.15C114.554 8.91 114.23 8.784 113.786 8.772C113.378 8.772 113.012 8.898 112.688 9.15C112.364 9.402 112.106 9.744 111.914 10.176C111.734 10.596 111.644 11.076 111.644 11.616V15H109.628ZM119.876 7.386H121.892V15H119.876V7.386ZM119.786 4.668C119.786 4.356 119.906 4.098 120.146 3.894C120.398 3.69 120.668 3.588 120.956 3.588C121.244 3.588 121.502 3.69 121.73 3.894C121.97 4.098 122.09 4.356 122.09 4.668C122.09 4.98 121.97 5.238 121.73 5.442C121.502 5.634 121.244 5.73 120.956 5.73C120.668 5.73 120.398 5.628 120.146 5.424C119.906 5.22 119.786 4.968 119.786 4.668ZM126.475 7.386L126.655 9.024L126.583 8.808C126.847 8.28 127.237 7.86 127.753 7.548C128.281 7.224 128.905 7.062 129.625 7.062C130.345 7.062 130.939 7.272 131.407 7.692C131.875 8.112 132.115 8.664 132.127 9.348V15H130.111V10.068C130.099 9.684 129.991 9.378 129.787 9.15C129.583 8.91 129.259 8.784 128.815 8.772C128.407 8.772 128.041 8.898 127.717 9.15C127.393 9.39 127.135 9.726 126.943 10.158C126.763 10.578 126.673 11.064 126.673 11.616V15H124.657V7.386H126.475ZM138.542 15.198C137.642 15.198 136.874 15.024 136.238 14.676C135.602 14.328 135.116 13.848 134.78 13.236C134.444 12.612 134.276 11.91 134.276 11.13C134.276 10.362 134.468 9.672 134.852 9.06C135.236 8.448 135.752 7.962 136.4 7.602C137.06 7.23 137.786 7.044 138.578 7.044C139.622 7.044 140.48 7.35 141.152 7.962C141.836 8.562 142.292 9.414 142.52 10.518L136.382 12.588L135.914 11.454L140.702 9.744L140.288 9.978C140.156 9.618 139.94 9.306 139.64 9.042C139.352 8.778 138.944 8.646 138.416 8.646C137.996 8.646 137.624 8.748 137.3 8.952C136.976 9.144 136.718 9.42 136.526 9.78C136.346 10.128 136.256 10.542 136.256 11.022C136.256 11.514 136.358 11.946 136.562 12.318C136.766 12.69 137.042 12.978 137.39 13.182C137.738 13.374 138.134 13.47 138.578 13.47C138.89 13.47 139.19 13.416 139.478 13.308C139.766 13.2 140.036 13.056 140.288 12.876L141.206 14.37C140.81 14.622 140.372 14.826 139.892 14.982C139.424 15.126 138.974 15.198 138.542 15.198ZM150.269 0.959999H152.285V15H150.269V0.959999ZM158.686 15.198C157.786 15.198 157.018 15.024 156.382 14.676C155.746 14.328 155.26 13.848 154.924 13.236C154.588 12.612 154.42 11.91 154.42 11.13C154.42 10.362 154.612 9.672 154.996 9.06C155.38 8.448 155.896 7.962 156.544 7.602C157.204 7.23 157.93 7.044 158.722 7.044C159.766 7.044 160.624 7.35 161.296 7.962C161.98 8.562 162.436 9.414 162.664 10.518L156.526 12.588L156.058 11.454L160.846 9.744L160.432 9.978C160.3 9.618 160.084 9.306 159.784 9.042C159.496 8.778 159.088 8.646 158.56 8.646C158.14 8.646 157.768 8.748 157.444 8.952C157.12 9.144 156.862 9.42 156.67 9.78C156.49 10.128 156.4 10.542 156.4 11.022C156.4 11.514 156.502 11.946 156.706 12.318C156.91 12.69 157.186 12.978 157.534 13.182C157.882 13.374 158.278 13.47 158.722 13.47C159.034 13.47 159.334 13.416 159.622 13.308C159.91 13.2 160.18 13.056 160.432 12.876L161.35 14.37C160.954 14.622 160.516 14.826 160.036 14.982C159.568 15.126 159.118 15.198 158.686 15.198ZM167.852 15.198C167.132 15.198 166.478 15.048 165.89 14.748C165.314 14.448 164.858 14.004 164.522 13.416C164.186 12.816 164.018 12.078 164.018 11.202C164.018 10.338 164.192 9.6 164.54 8.988C164.9 8.364 165.368 7.884 165.944 7.548C166.532 7.212 167.168 7.044 167.852 7.044C168.584 7.044 169.172 7.188 169.616 7.476C170.072 7.764 170.426 8.106 170.678 8.502L170.57 8.79L170.768 7.386H172.622V15H170.606V13.146L170.804 13.632C170.756 13.704 170.66 13.824 170.516 13.992C170.372 14.148 170.174 14.322 169.922 14.514C169.67 14.706 169.37 14.868 169.022 15C168.686 15.132 168.296 15.198 167.852 15.198ZM168.41 13.542C168.77 13.542 169.094 13.476 169.382 13.344C169.682 13.212 169.934 13.026 170.138 12.786C170.354 12.546 170.51 12.258 170.606 11.922V10.266C170.51 9.954 170.354 9.684 170.138 9.456C169.922 9.216 169.658 9.03 169.346 8.898C169.046 8.766 168.71 8.7 168.338 8.7C167.93 8.7 167.552 8.802 167.204 9.006C166.856 9.21 166.574 9.492 166.358 9.852C166.154 10.212 166.052 10.626 166.052 11.094C166.052 11.55 166.16 11.964 166.376 12.336C166.592 12.708 166.88 13.002 167.24 13.218C167.6 13.434 167.99 13.542 168.41 13.542ZM177.224 7.386L177.404 9.546L177.332 9.24C177.548 8.784 177.842 8.394 178.214 8.07C178.598 7.734 178.988 7.482 179.384 7.314C179.78 7.134 180.104 7.044 180.356 7.044L180.266 9.06C179.69 9.012 179.186 9.12 178.754 9.384C178.334 9.636 178.004 9.972 177.764 10.392C177.536 10.812 177.422 11.256 177.422 11.724V15H175.406V7.386H177.224ZM184.237 7.386L184.417 9.024L184.345 8.808C184.609 8.28 184.999 7.86 185.515 7.548C186.043 7.224 186.667 7.062 187.387 7.062C188.107 7.062 188.701 7.272 189.169 7.692C189.637 8.112 189.877 8.664 189.889 9.348V15H187.873V10.068C187.861 9.684 187.753 9.378 187.549 9.15C187.345 8.91 187.021 8.784 186.577 8.772C186.169 8.772 185.803 8.898 185.479 9.15C185.155 9.39 184.897 9.726 184.705 10.158C184.525 10.578 184.435 11.064 184.435 11.616V15H182.419V7.386H184.237ZM192.667 7.386H194.683V15H192.667V7.386ZM192.577 4.668C192.577 4.356 192.697 4.098 192.937 3.894C193.189 3.69 193.459 3.588 193.747 3.588C194.035 3.588 194.293 3.69 194.521 3.894C194.761 4.098 194.881 4.356 194.881 4.668C194.881 4.98 194.761 5.238 194.521 5.442C194.293 5.634 194.035 5.73 193.747 5.73C193.459 5.73 193.189 5.628 192.937 5.424C192.697 5.22 192.577 4.968 192.577 4.668ZM199.267 7.386L199.447 9.024L199.375 8.808C199.639 8.28 200.029 7.86 200.545 7.548C201.073 7.224 201.697 7.062 202.417 7.062C203.137 7.062 203.731 7.272 204.199 7.692C204.667 8.112 204.907 8.664 204.919 9.348V15H202.903V10.068C202.891 9.684 202.783 9.378 202.579 9.15C202.375 8.91 202.051 8.784 201.607 8.772C201.199 8.772 200.833 8.898 200.509 9.15C200.185 9.39 199.927 9.726 199.735 10.158C199.555 10.578 199.465 11.064 199.465 11.616V15H197.449V7.386H199.267ZM211.495 18.798C210.871 18.798 210.337 18.726 209.893 18.582C209.449 18.438 209.053 18.246 208.705 18.006C208.369 17.778 208.051 17.538 207.751 17.286L208.939 15.9C209.287 16.224 209.653 16.494 210.037 16.71C210.433 16.926 210.907 17.034 211.459 17.034C211.951 17.034 212.377 16.95 212.737 16.782C213.109 16.614 213.397 16.38 213.601 16.08C213.805 15.78 213.913 15.42 213.925 15V13.11L214.051 13.488C213.847 13.956 213.475 14.358 212.935 14.694C212.395 15.03 211.723 15.198 210.919 15.198C210.223 15.198 209.581 15.024 208.993 14.676C208.405 14.316 207.937 13.83 207.589 13.218C207.241 12.606 207.067 11.916 207.067 11.148C207.067 10.356 207.247 9.654 207.607 9.042C207.979 8.418 208.465 7.932 209.065 7.584C209.677 7.224 210.325 7.044 211.009 7.044C211.681 7.044 212.275 7.164 212.791 7.404C213.319 7.644 213.715 7.944 213.979 8.304L213.871 8.592L214.087 7.386H215.941V15.036C215.941 15.744 215.749 16.38 215.365 16.944C214.993 17.52 214.471 17.97 213.799 18.294C213.139 18.63 212.371 18.798 211.495 18.798ZM209.101 11.094C209.101 11.55 209.203 11.964 209.407 12.336C209.623 12.708 209.911 13.002 210.271 13.218C210.643 13.434 211.057 13.542 211.513 13.542C211.909 13.542 212.263 13.476 212.575 13.344C212.899 13.212 213.175 13.026 213.403 12.786C213.643 12.546 213.817 12.264 213.925 11.94V10.284C213.817 9.96 213.643 9.684 213.403 9.456C213.175 9.216 212.899 9.03 212.575 8.898C212.263 8.766 211.909 8.7 211.513 8.7C211.057 8.7 210.643 8.802 210.271 9.006C209.911 9.21 209.623 9.492 209.407 9.852C209.203 10.212 209.101 10.626 209.101 11.094Z" fill="black"/>
    <path d="M15.756 185.112C15.756 184.344 15.936 183.654 16.296 183.042C16.656 182.418 17.16 181.932 17.808 181.584C18.468 181.224 19.212 181.044 20.04 181.044C20.892 181.044 21.63 181.224 22.254 181.584C22.89 181.932 23.382 182.418 23.73 183.042C24.078 183.654 24.252 184.344 24.252 185.112C24.252 185.88 24.078 186.576 23.73 187.2C23.382 187.812 22.89 188.298 22.254 188.658C21.63 189.018 20.886 189.198 20.022 189.198C19.206 189.198 18.474 189.036 17.826 188.712C17.178 188.376 16.668 187.902 16.296 187.29C15.936 186.678 15.756 185.952 15.756 185.112ZM17.79 185.13C17.79 185.574 17.886 185.982 18.078 186.354C18.27 186.714 18.534 187.002 18.87 187.218C19.206 187.434 19.578 187.542 19.986 187.542C20.43 187.542 20.814 187.434 21.138 187.218C21.474 187.002 21.732 186.714 21.912 186.354C22.104 185.982 22.2 185.574 22.2 185.13C22.2 184.674 22.104 184.266 21.912 183.906C21.732 183.534 21.474 183.24 21.138 183.024C20.814 182.808 20.43 182.7 19.986 182.7C19.566 182.7 19.188 182.814 18.852 183.042C18.528 183.258 18.27 183.546 18.078 183.906C17.886 184.266 17.79 184.674 17.79 185.13ZM30.9964 189.198C30.4684 189.198 29.9584 189.084 29.4664 188.856C28.9744 188.628 28.5784 188.316 28.2784 187.92L28.3864 187.308V192.654H26.3704V181.242H28.1164L28.3864 183.006L28.2064 182.466C28.5784 182.058 29.0284 181.722 29.5564 181.458C30.0964 181.182 30.7024 181.044 31.3744 181.044C32.0944 181.044 32.7364 181.212 33.3004 181.548C33.8644 181.884 34.3084 182.364 34.6324 182.988C34.9684 183.6 35.1364 184.326 35.1364 185.166C35.1364 186.006 34.9564 186.726 34.5964 187.326C34.2364 187.926 33.7444 188.388 33.1204 188.712C32.4964 189.036 31.7884 189.198 30.9964 189.198ZM30.6004 187.596C31.0444 187.596 31.4524 187.494 31.8244 187.29C32.2084 187.086 32.5144 186.804 32.7424 186.444C32.9704 186.072 33.0844 185.658 33.0844 185.202C33.0844 184.722 32.9764 184.302 32.7604 183.942C32.5564 183.57 32.2744 183.282 31.9144 183.078C31.5664 182.862 31.1764 182.754 30.7444 182.754C30.3484 182.754 29.9944 182.82 29.6824 182.952C29.3704 183.084 29.1064 183.276 28.8904 183.528C28.6744 183.768 28.5064 184.056 28.3864 184.392V185.922C28.4704 186.246 28.6144 186.534 28.8184 186.786C29.0224 187.038 29.2804 187.236 29.5924 187.38C29.9044 187.524 30.2404 187.596 30.6004 187.596ZM40.9048 189.198C40.0048 189.198 39.2368 189.024 38.6008 188.676C37.9648 188.328 37.4788 187.848 37.1428 187.236C36.8068 186.612 36.6388 185.91 36.6388 185.13C36.6388 184.362 36.8308 183.672 37.2148 183.06C37.5988 182.448 38.1148 181.962 38.7628 181.602C39.4228 181.23 40.1488 181.044 40.9408 181.044C41.9848 181.044 42.8428 181.35 43.5148 181.962C44.1988 182.562 44.6548 183.414 44.8828 184.518L38.7448 186.588L38.2768 185.454L43.0648 183.744L42.6508 183.978C42.5188 183.618 42.3028 183.306 42.0028 183.042C41.7148 182.778 41.3068 182.646 40.7788 182.646C40.3588 182.646 39.9868 182.748 39.6628 182.952C39.3388 183.144 39.0808 183.42 38.8888 183.78C38.7088 184.128 38.6188 184.542 38.6188 185.022C38.6188 185.514 38.7208 185.946 38.9248 186.318C39.1288 186.69 39.4048 186.978 39.7528 187.182C40.1008 187.374 40.4968 187.47 40.9408 187.47C41.2528 187.47 41.5528 187.416 41.8408 187.308C42.1288 187.2 42.3988 187.056 42.6508 186.876L43.5688 188.37C43.1728 188.622 42.7348 188.826 42.2548 188.982C41.7868 189.126 41.3368 189.198 40.9048 189.198ZM48.6845 181.386L48.8645 183.024L48.7925 182.808C49.0565 182.28 49.4465 181.86 49.9625 181.548C50.4905 181.224 51.1145 181.062 51.8345 181.062C52.5545 181.062 53.1485 181.272 53.6165 181.692C54.0845 182.112 54.3245 182.664 54.3365 183.348V189H52.3205V184.068C52.3085 183.684 52.2005 183.378 51.9965 183.15C51.7925 182.91 51.4685 182.784 51.0245 182.772C50.6165 182.772 50.2505 182.898 49.9265 183.15C49.6025 183.39 49.3445 183.726 49.1525 184.158C48.9725 184.578 48.8825 185.064 48.8825 185.616V189H46.8665V181.386H48.6845ZM65.1661 189.162C64.5901 189.162 64.0381 189.06 63.5101 188.856C62.9941 188.652 62.5561 188.352 62.1961 187.956L63.0601 186.822C63.3961 187.146 63.7261 187.386 64.0501 187.542C64.3861 187.686 64.7041 187.758 65.0041 187.758C65.2321 187.758 65.4361 187.734 65.6161 187.686C65.8081 187.626 65.9581 187.536 66.0661 187.416C66.1861 187.296 66.2461 187.134 66.2461 186.93C66.2461 186.69 66.1621 186.504 65.9941 186.372C65.8261 186.228 65.6101 186.114 65.3461 186.03C65.0821 185.934 64.8061 185.844 64.5181 185.76C63.8581 185.556 63.3661 185.256 63.0421 184.86C62.7181 184.464 62.5561 184.008 62.5561 183.492C62.5561 183.096 62.6581 182.718 62.8621 182.358C63.0661 181.986 63.3781 181.68 63.7981 181.44C64.2181 181.2 64.7461 181.08 65.3821 181.08C65.9581 181.08 66.4561 181.146 66.8761 181.278C67.3081 181.398 67.7101 181.608 68.0821 181.908L67.3081 183.114C67.0921 182.91 66.8341 182.754 66.5341 182.646C66.2461 182.526 65.9821 182.46 65.7421 182.448C65.5261 182.436 65.3341 182.466 65.1661 182.538C64.9981 182.598 64.8601 182.688 64.7521 182.808C64.6561 182.928 64.6081 183.066 64.6081 183.222C64.5961 183.462 64.6741 183.654 64.8421 183.798C65.0221 183.942 65.2501 184.056 65.5261 184.14C65.8021 184.224 66.0781 184.314 66.3541 184.41C66.7261 184.518 67.0561 184.668 67.3441 184.86C67.6321 185.052 67.8541 185.286 68.0101 185.562C68.1781 185.826 68.2621 186.156 68.2621 186.552C68.2621 187.008 68.1481 187.44 67.9201 187.848C67.6921 188.244 67.3501 188.562 66.8941 188.802C66.4381 189.042 65.8621 189.162 65.1661 189.162ZM69.8615 185.112C69.8615 184.344 70.0415 183.654 70.4015 183.042C70.7615 182.418 71.2655 181.932 71.9135 181.584C72.5735 181.224 73.3175 181.044 74.1455 181.044C74.9975 181.044 75.7355 181.224 76.3595 181.584C76.9955 181.932 77.4875 182.418 77.8355 183.042C78.1835 183.654 78.3575 184.344 78.3575 185.112C78.3575 185.88 78.1835 186.576 77.8355 187.2C77.4875 187.812 76.9955 188.298 76.3595 188.658C75.7355 189.018 74.9915 189.198 74.1275 189.198C73.3115 189.198 72.5795 189.036 71.9315 188.712C71.2835 188.376 70.7735 187.902 70.4015 187.29C70.0415 186.678 69.8615 185.952 69.8615 185.112ZM71.8955 185.13C71.8955 185.574 71.9915 185.982 72.1835 186.354C72.3755 186.714 72.6395 187.002 72.9755 187.218C73.3115 187.434 73.6835 187.542 74.0915 187.542C74.5355 187.542 74.9195 187.434 75.2435 187.218C75.5795 187.002 75.8375 186.714 76.0175 186.354C76.2095 185.982 76.3055 185.574 76.3055 185.13C76.3055 184.674 76.2095 184.266 76.0175 183.906C75.8375 183.534 75.5795 183.24 75.2435 183.024C74.9195 182.808 74.5355 182.7 74.0915 182.7C73.6715 182.7 73.2935 182.814 72.9575 183.042C72.6335 183.258 72.3755 183.546 72.1835 183.906C71.9915 184.266 71.8955 184.674 71.8955 185.13ZM82.9238 189.324C82.2278 189.324 81.6518 189.114 81.1958 188.694C80.7398 188.262 80.4998 187.71 80.4758 187.038V181.386H82.4918V186.318C82.5158 186.69 82.6238 186.996 82.8158 187.236C83.0078 187.476 83.3138 187.596 83.7338 187.596C84.1298 187.596 84.4838 187.476 84.7958 187.236C85.1078 186.984 85.3478 186.642 85.5158 186.21C85.6958 185.778 85.7858 185.292 85.7858 184.752V181.386H87.8018V189H85.9838L85.8218 187.326L85.8758 187.596C85.7198 187.92 85.4978 188.22 85.2098 188.496C84.9218 188.76 84.5798 188.964 84.1838 189.108C83.7998 189.252 83.3798 189.324 82.9238 189.324ZM92.4013 181.386L92.5813 183.546L92.5093 183.24C92.7253 182.784 93.0193 182.394 93.3913 182.07C93.7753 181.734 94.1653 181.482 94.5613 181.314C94.9573 181.134 95.2813 181.044 95.5333 181.044L95.4433 183.06C94.8673 183.012 94.3633 183.12 93.9313 183.384C93.5113 183.636 93.1813 183.972 92.9413 184.392C92.7133 184.812 92.5993 185.256 92.5993 185.724V189H90.5833V181.386H92.4013ZM103.563 188.298C103.227 188.574 102.813 188.796 102.321 188.964C101.841 189.12 101.355 189.198 100.863 189.198C100.023 189.198 99.285 189.036 98.649 188.712C98.013 188.376 97.515 187.914 97.155 187.326C96.807 186.726 96.633 186.012 96.633 185.184C96.633 184.356 96.819 183.642 97.191 183.042C97.575 182.442 98.073 181.986 98.685 181.674C99.309 181.35 99.969 181.188 100.665 181.188C101.301 181.188 101.865 181.278 102.357 181.458C102.849 181.626 103.275 181.86 103.635 182.16L102.627 183.474C102.435 183.318 102.183 183.174 101.871 183.042C101.571 182.898 101.229 182.826 100.845 182.826C100.437 182.826 100.065 182.928 99.729 183.132C99.405 183.336 99.141 183.618 98.937 183.978C98.745 184.326 98.649 184.728 98.649 185.184C98.649 185.616 98.751 186.012 98.955 186.372C99.159 186.732 99.441 187.02 99.801 187.236C100.161 187.44 100.575 187.542 101.043 187.542C101.343 187.542 101.619 187.5 101.871 187.416C102.135 187.32 102.363 187.194 102.555 187.038L103.563 188.298ZM109.266 189.198C108.366 189.198 107.598 189.024 106.962 188.676C106.326 188.328 105.84 187.848 105.504 187.236C105.168 186.612 105 185.91 105 185.13C105 184.362 105.192 183.672 105.576 183.06C105.96 182.448 106.476 181.962 107.124 181.602C107.784 181.23 108.51 181.044 109.302 181.044C110.346 181.044 111.204 181.35 111.876 181.962C112.56 182.562 113.016 183.414 113.244 184.518L107.106 186.588L106.638 185.454L111.426 183.744L111.012 183.978C110.88 183.618 110.664 183.306 110.364 183.042C110.076 182.778 109.668 182.646 109.14 182.646C108.72 182.646 108.348 182.748 108.024 182.952C107.7 183.144 107.442 183.42 107.25 183.78C107.07 184.128 106.98 184.542 106.98 185.022C106.98 185.514 107.082 185.946 107.286 186.318C107.49 186.69 107.766 186.978 108.114 187.182C108.462 187.374 108.858 187.47 109.302 187.47C109.614 187.47 109.914 187.416 110.202 187.308C110.49 187.2 110.76 187.056 111.012 186.876L111.93 188.37C111.534 188.622 111.096 188.826 110.616 188.982C110.148 189.126 109.698 189.198 109.266 189.198Z" fill="black"/>
    <path d="M361.686 188.298C361.35 188.574 360.936 188.796 360.444 188.964C359.964 189.12 359.478 189.198 358.986 189.198C358.146 189.198 357.408 189.036 356.772 188.712C356.136 188.376 355.638 187.914 355.278 187.326C354.93 186.726 354.756 186.012 354.756 185.184C354.756 184.356 354.942 183.642 355.314 183.042C355.698 182.442 356.196 181.986 356.808 181.674C357.432 181.35 358.092 181.188 358.788 181.188C359.424 181.188 359.988 181.278 360.48 181.458C360.972 181.626 361.398 181.86 361.758 182.16L360.75 183.474C360.558 183.318 360.306 183.174 359.994 183.042C359.694 182.898 359.352 182.826 358.968 182.826C358.56 182.826 358.188 182.928 357.852 183.132C357.528 183.336 357.264 183.618 357.06 183.978C356.868 184.326 356.772 184.728 356.772 185.184C356.772 185.616 356.874 186.012 357.078 186.372C357.282 186.732 357.564 187.02 357.924 187.236C358.284 187.44 358.698 187.542 359.166 187.542C359.466 187.542 359.742 187.5 359.994 187.416C360.258 187.32 360.486 187.194 360.678 187.038L361.686 188.298ZM364.383 192.654L369.441 181.386H371.277L366.363 192.654H364.383ZM366.345 189.054L362.637 181.386H364.905L367.893 188.028L366.345 189.054ZM377.735 189.198C377.051 189.198 376.463 189.066 375.971 188.802C375.479 188.526 375.077 188.178 374.765 187.758L374.945 187.236V189H372.929V174.96H374.945V182.952L374.909 182.232C375.209 181.884 375.629 181.602 376.169 181.386C376.709 181.158 377.321 181.044 378.005 181.044C378.677 181.044 379.289 181.206 379.841 181.53C380.405 181.842 380.855 182.298 381.191 182.898C381.527 183.498 381.695 184.218 381.695 185.058C381.695 185.91 381.509 186.648 381.137 187.272C380.777 187.896 380.291 188.376 379.679 188.712C379.079 189.036 378.431 189.198 377.735 189.198ZM377.303 187.488C377.735 187.488 378.125 187.386 378.473 187.182C378.833 186.966 379.115 186.672 379.319 186.3C379.535 185.928 379.643 185.508 379.643 185.04C379.643 184.584 379.535 184.176 379.319 183.816C379.115 183.456 378.833 183.174 378.473 182.97C378.125 182.754 377.735 182.646 377.303 182.646C376.919 182.646 376.565 182.712 376.241 182.844C375.929 182.976 375.659 183.162 375.431 183.402C375.215 183.63 375.053 183.9 374.945 184.212V185.904C375.065 186.216 375.233 186.492 375.449 186.732C375.665 186.972 375.929 187.158 376.241 187.29C376.565 187.422 376.919 187.488 377.303 187.488ZM387.463 189.198C386.563 189.198 385.795 189.024 385.159 188.676C384.523 188.328 384.037 187.848 383.701 187.236C383.365 186.612 383.197 185.91 383.197 185.13C383.197 184.362 383.389 183.672 383.773 183.06C384.157 182.448 384.673 181.962 385.321 181.602C385.981 181.23 386.707 181.044 387.499 181.044C388.543 181.044 389.401 181.35 390.073 181.962C390.757 182.562 391.213 183.414 391.441 184.518L385.303 186.588L384.835 185.454L389.623 183.744L389.209 183.978C389.077 183.618 388.861 183.306 388.561 183.042C388.273 182.778 387.865 182.646 387.337 182.646C386.917 182.646 386.545 182.748 386.221 182.952C385.897 183.144 385.639 183.42 385.447 183.78C385.267 184.128 385.177 184.542 385.177 185.022C385.177 185.514 385.279 185.946 385.483 186.318C385.687 186.69 385.963 186.978 386.311 187.182C386.659 187.374 387.055 187.47 387.499 187.47C387.811 187.47 388.111 187.416 388.399 187.308C388.687 187.2 388.957 187.056 389.209 186.876L390.127 188.37C389.731 188.622 389.293 188.826 388.813 188.982C388.345 189.126 387.895 189.198 387.463 189.198ZM395.243 181.386L395.423 183.546L395.351 183.24C395.567 182.784 395.861 182.394 396.233 182.07C396.617 181.734 397.007 181.482 397.403 181.314C397.799 181.134 398.123 181.044 398.375 181.044L398.285 183.06C397.709 183.012 397.205 183.12 396.773 183.384C396.353 183.636 396.023 183.972 395.783 184.392C395.555 184.812 395.441 185.256 395.441 185.724V189H393.425V181.386H395.243Z" fill="black"/>
    <path d="M7.686 101.298C7.35 101.574 6.936 101.796 6.444 101.964C5.964 102.12 5.478 102.198 4.986 102.198C4.146 102.198 3.408 102.036 2.772 101.712C2.136 101.376 1.638 100.914 1.278 100.326C0.93 99.726 0.756 99.012 0.756 98.184C0.756 97.356 0.942 96.642 1.314 96.042C1.698 95.442 2.196 94.986 2.808 94.674C3.432 94.35 4.092 94.188 4.788 94.188C5.424 94.188 5.988 94.278 6.48 94.458C6.972 94.626 7.398 94.86 7.758 95.16L6.75 96.474C6.558 96.318 6.306 96.174 5.994 96.042C5.694 95.898 5.352 95.826 4.968 95.826C4.56 95.826 4.188 95.928 3.852 96.132C3.528 96.336 3.264 96.618 3.06 96.978C2.868 97.326 2.772 97.728 2.772 98.184C2.772 98.616 2.874 99.012 3.078 99.372C3.282 99.732 3.564 100.02 3.924 100.236C4.284 100.44 4.698 100.542 5.166 100.542C5.466 100.542 5.742 100.5 5.994 100.416C6.258 100.32 6.486 100.194 6.678 100.038L7.686 101.298ZM9.12319 98.112C9.12319 97.344 9.30319 96.654 9.66319 96.042C10.0232 95.418 10.5272 94.932 11.1752 94.584C11.8352 94.224 12.5792 94.044 13.4072 94.044C14.2592 94.044 14.9972 94.224 15.6212 94.584C16.2572 94.932 16.7492 95.418 17.0972 96.042C17.4452 96.654 17.6192 97.344 17.6192 98.112C17.6192 98.88 17.4452 99.576 17.0972 100.2C16.7492 100.812 16.2572 101.298 15.6212 101.658C14.9972 102.018 14.2532 102.198 13.3892 102.198C12.5732 102.198 11.8412 102.036 11.1932 101.712C10.5452 101.376 10.0352 100.902 9.66319 100.29C9.30319 99.678 9.12319 98.952 9.12319 98.112ZM11.1572 98.13C11.1572 98.574 11.2532 98.982 11.4452 99.354C11.6372 99.714 11.9012 100.002 12.2372 100.218C12.5732 100.434 12.9452 100.542 13.3532 100.542C13.7972 100.542 14.1812 100.434 14.5052 100.218C14.8412 100.002 15.0992 99.714 15.2792 99.354C15.4712 98.982 15.5672 98.574 15.5672 98.13C15.5672 97.674 15.4712 97.266 15.2792 96.906C15.0992 96.534 14.8412 96.24 14.5052 96.024C14.1812 95.808 13.7972 95.7 13.3532 95.7C12.9332 95.7 12.5552 95.814 12.2192 96.042C11.8952 96.258 11.6372 96.546 11.4452 96.906C11.2532 97.266 11.1572 97.674 11.1572 98.13ZM21.5556 94.386L21.7356 95.934L21.6636 95.808C21.9516 95.256 22.3416 94.824 22.8336 94.512C23.3376 94.2 23.9196 94.044 24.5796 94.044C24.9996 94.044 25.3716 94.11 25.6956 94.242C26.0196 94.374 26.2896 94.56 26.5056 94.8C26.7336 95.04 26.8836 95.34 26.9556 95.7L26.8476 95.736C27.1596 95.22 27.5616 94.812 28.0536 94.512C28.5456 94.2 29.0676 94.044 29.6196 94.044C30.3636 94.044 30.9576 94.26 31.4016 94.692C31.8456 95.112 32.0736 95.658 32.0856 96.33V102H30.0876V97.122C30.0756 96.75 29.9976 96.444 29.8536 96.204C29.7096 95.952 29.4396 95.814 29.0436 95.79C28.6116 95.79 28.2396 95.928 27.9276 96.204C27.6156 96.468 27.3696 96.816 27.1896 97.248C27.0216 97.668 26.9376 98.118 26.9376 98.598V102H24.9036V97.122C24.8916 96.75 24.8076 96.444 24.6516 96.204C24.4956 95.952 24.2196 95.814 23.8236 95.79C23.4036 95.79 23.0376 95.928 22.7256 96.204C22.4136 96.468 22.1736 96.816 22.0056 97.248C21.8376 97.668 21.7536 98.112 21.7536 98.58V102H19.7376V94.386H21.5556ZM39.4808 102.198C38.9528 102.198 38.4428 102.084 37.9508 101.856C37.4588 101.628 37.0628 101.316 36.7628 100.92L36.8708 100.308V105.654H34.8548V94.242H36.6008L36.8708 96.006L36.6908 95.466C37.0628 95.058 37.5128 94.722 38.0408 94.458C38.5808 94.182 39.1868 94.044 39.8588 94.044C40.5788 94.044 41.2208 94.212 41.7848 94.548C42.3488 94.884 42.7928 95.364 43.1168 95.988C43.4528 96.6 43.6208 97.326 43.6208 98.166C43.6208 99.006 43.4408 99.726 43.0808 100.326C42.7208 100.926 42.2288 101.388 41.6048 101.712C40.9808 102.036 40.2728 102.198 39.4808 102.198ZM39.0848 100.596C39.5288 100.596 39.9368 100.494 40.3088 100.29C40.6928 100.086 40.9988 99.804 41.2268 99.444C41.4548 99.072 41.5688 98.658 41.5688 98.202C41.5688 97.722 41.4608 97.302 41.2448 96.942C41.0408 96.57 40.7588 96.282 40.3988 96.078C40.0508 95.862 39.6608 95.754 39.2288 95.754C38.8328 95.754 38.4788 95.82 38.1668 95.952C37.8548 96.084 37.5908 96.276 37.3748 96.528C37.1588 96.768 36.9908 97.056 36.8708 97.392V98.922C36.9548 99.246 37.0988 99.534 37.3028 99.786C37.5068 100.038 37.7648 100.236 38.0768 100.38C38.3888 100.524 38.7248 100.596 39.0848 100.596ZM49.3892 102.198C48.4892 102.198 47.7212 102.024 47.0852 101.676C46.4492 101.328 45.9632 100.848 45.6272 100.236C45.2912 99.612 45.1232 98.91 45.1232 98.13C45.1232 97.362 45.3152 96.672 45.6992 96.06C46.0832 95.448 46.5992 94.962 47.2472 94.602C47.9072 94.23 48.6332 94.044 49.4252 94.044C50.4692 94.044 51.3272 94.35 51.9992 94.962C52.6832 95.562 53.1392 96.414 53.3672 97.518L47.2292 99.588L46.7612 98.454L51.5492 96.744L51.1352 96.978C51.0032 96.618 50.7872 96.306 50.4872 96.042C50.1992 95.778 49.7912 95.646 49.2632 95.646C48.8432 95.646 48.4712 95.748 48.1472 95.952C47.8232 96.144 47.5652 96.42 47.3732 96.78C47.1932 97.128 47.1032 97.542 47.1032 98.022C47.1032 98.514 47.2052 98.946 47.4092 99.318C47.6132 99.69 47.8892 99.978 48.2372 100.182C48.5852 100.374 48.9812 100.47 49.4252 100.47C49.7372 100.47 50.0372 100.416 50.3252 100.308C50.6132 100.2 50.8832 100.056 51.1352 99.876L52.0532 101.37C51.6572 101.622 51.2192 101.826 50.7392 101.982C50.2712 102.126 49.8212 102.198 49.3892 102.198ZM56.0708 91.038H58.1048V94.386H60.0848V95.97H58.1048V102H56.0708V95.97H54.7748V94.386H56.0708V91.038ZM62.0657 94.386H64.0817V102H62.0657V94.386ZM61.9757 91.668C61.9757 91.356 62.0957 91.098 62.3357 90.894C62.5877 90.69 62.8577 90.588 63.1457 90.588C63.4337 90.588 63.6917 90.69 63.9197 90.894C64.1597 91.098 64.2797 91.356 64.2797 91.668C64.2797 91.98 64.1597 92.238 63.9197 92.442C63.6917 92.634 63.4337 92.73 63.1457 92.73C62.8577 92.73 62.5877 92.628 62.3357 92.424C62.0957 92.22 61.9757 91.968 61.9757 91.668ZM67.5669 91.038H69.6009V94.386H71.5809V95.97H69.6009V102H67.5669V95.97H66.2709V94.386H67.5669V91.038ZM73.5618 94.386H75.5778V102H73.5618V94.386ZM73.4718 91.668C73.4718 91.356 73.5918 91.098 73.8318 90.894C74.0838 90.69 74.3538 90.588 74.6418 90.588C74.9298 90.588 75.1878 90.69 75.4158 90.894C75.6558 91.098 75.7758 91.356 75.7758 91.668C75.7758 91.98 75.6558 92.238 75.4158 92.442C75.1878 92.634 74.9298 92.73 74.6418 92.73C74.3538 92.73 74.0838 92.628 73.8318 92.424C73.5918 92.22 73.4718 91.968 73.4718 91.668ZM81.601 102.198L77.227 94.386H79.621L82.375 100.11L81.133 100.056L83.617 94.386H85.867L81.691 102.198H81.601ZM90.9439 102.198C90.0439 102.198 89.2759 102.024 88.6399 101.676C88.0039 101.328 87.5179 100.848 87.1819 100.236C86.8459 99.612 86.6779 98.91 86.6779 98.13C86.6779 97.362 86.8699 96.672 87.2539 96.06C87.6379 95.448 88.1539 94.962 88.8019 94.602C89.4619 94.23 90.1879 94.044 90.9799 94.044C92.0239 94.044 92.8819 94.35 93.5539 94.962C94.2379 95.562 94.6939 96.414 94.9219 97.518L88.7839 99.588L88.3159 98.454L93.1039 96.744L92.6899 96.978C92.5579 96.618 92.3419 96.306 92.0419 96.042C91.7539 95.778 91.3459 95.646 90.8179 95.646C90.3979 95.646 90.0259 95.748 89.7019 95.952C89.3779 96.144 89.1199 96.42 88.9279 96.78C88.7479 97.128 88.6579 97.542 88.6579 98.022C88.6579 98.514 88.7599 98.946 88.9639 99.318C89.1679 99.69 89.4439 99.978 89.7919 100.182C90.1399 100.374 90.5359 100.47 90.9799 100.47C91.2919 100.47 91.5919 100.416 91.8799 100.308C92.1679 100.2 92.4379 100.056 92.6899 99.876L93.6079 101.37C93.2119 101.622 92.7739 101.826 92.2939 101.982C91.8259 102.126 91.3759 102.198 90.9439 102.198ZM107.297 102.198C106.769 102.198 106.259 102.084 105.767 101.856C105.275 101.628 104.879 101.316 104.579 100.92L104.687 100.308V105.654H102.671V94.242H104.417L104.687 96.006L104.507 95.466C104.879 95.058 105.329 94.722 105.857 94.458C106.397 94.182 107.003 94.044 107.675 94.044C108.395 94.044 109.037 94.212 109.601 94.548C110.165 94.884 110.609 95.364 110.933 95.988C111.269 96.6 111.437 97.326 111.437 98.166C111.437 99.006 111.257 99.726 110.897 100.326C110.537 100.926 110.045 101.388 109.421 101.712C108.797 102.036 108.089 102.198 107.297 102.198ZM106.901 100.596C107.345 100.596 107.753 100.494 108.125 100.29C108.509 100.086 108.815 99.804 109.043 99.444C109.271 99.072 109.385 98.658 109.385 98.202C109.385 97.722 109.277 97.302 109.061 96.942C108.857 96.57 108.575 96.282 108.215 96.078C107.867 95.862 107.477 95.754 107.045 95.754C106.649 95.754 106.295 95.82 105.983 95.952C105.671 96.084 105.407 96.276 105.191 96.528C104.975 96.768 104.807 97.056 104.687 97.392V98.922C104.771 99.246 104.915 99.534 105.119 99.786C105.323 100.038 105.581 100.236 105.893 100.38C106.205 100.524 106.541 100.596 106.901 100.596ZM115.388 94.386L115.568 96.546L115.496 96.24C115.712 95.784 116.006 95.394 116.378 95.07C116.762 94.734 117.152 94.482 117.548 94.314C117.944 94.134 118.268 94.044 118.52 94.044L118.43 96.06C117.854 96.012 117.35 96.12 116.918 96.384C116.498 96.636 116.168 96.972 115.928 97.392C115.7 97.812 115.586 98.256 115.586 98.724V102H113.57V94.386H115.388ZM119.619 98.112C119.619 97.344 119.799 96.654 120.159 96.042C120.519 95.418 121.023 94.932 121.671 94.584C122.331 94.224 123.075 94.044 123.903 94.044C124.755 94.044 125.493 94.224 126.117 94.584C126.753 94.932 127.245 95.418 127.593 96.042C127.941 96.654 128.115 97.344 128.115 98.112C128.115 98.88 127.941 99.576 127.593 100.2C127.245 100.812 126.753 101.298 126.117 101.658C125.493 102.018 124.749 102.198 123.885 102.198C123.069 102.198 122.337 102.036 121.689 101.712C121.041 101.376 120.531 100.902 120.159 100.29C119.799 99.678 119.619 98.952 119.619 98.112ZM121.653 98.13C121.653 98.574 121.749 98.982 121.941 99.354C122.133 99.714 122.397 100.002 122.733 100.218C123.069 100.434 123.441 100.542 123.849 100.542C124.293 100.542 124.677 100.434 125.001 100.218C125.337 100.002 125.595 99.714 125.775 99.354C125.967 98.982 126.063 98.574 126.063 98.13C126.063 97.674 125.967 97.266 125.775 96.906C125.595 96.534 125.337 96.24 125.001 96.024C124.677 95.808 124.293 95.7 123.849 95.7C123.429 95.7 123.051 95.814 122.715 96.042C122.391 96.258 122.133 96.546 121.941 96.906C121.749 97.266 121.653 97.674 121.653 98.13ZM134.032 105.798C133.408 105.798 132.874 105.726 132.43 105.582C131.986 105.438 131.59 105.246 131.242 105.006C130.906 104.778 130.588 104.538 130.288 104.286L131.476 102.9C131.824 103.224 132.19 103.494 132.574 103.71C132.97 103.926 133.444 104.034 133.996 104.034C134.488 104.034 134.914 103.95 135.274 103.782C135.646 103.614 135.934 103.38 136.138 103.08C136.342 102.78 136.45 102.42 136.462 102V100.11L136.588 100.488C136.384 100.956 136.012 101.358 135.472 101.694C134.932 102.03 134.26 102.198 133.456 102.198C132.76 102.198 132.118 102.024 131.53 101.676C130.942 101.316 130.474 100.83 130.126 100.218C129.778 99.606 129.604 98.916 129.604 98.148C129.604 97.356 129.784 96.654 130.144 96.042C130.516 95.418 131.002 94.932 131.602 94.584C132.214 94.224 132.862 94.044 133.546 94.044C134.218 94.044 134.812 94.164 135.328 94.404C135.856 94.644 136.252 94.944 136.516 95.304L136.408 95.592L136.624 94.386H138.478V102.036C138.478 102.744 138.286 103.38 137.902 103.944C137.53 104.52 137.008 104.97 136.336 105.294C135.676 105.63 134.908 105.798 134.032 105.798ZM131.638 98.094C131.638 98.55 131.74 98.964 131.944 99.336C132.16 99.708 132.448 100.002 132.808 100.218C133.18 100.434 133.594 100.542 134.05 100.542C134.446 100.542 134.8 100.476 135.112 100.344C135.436 100.212 135.712 100.026 135.94 99.786C136.18 99.546 136.354 99.264 136.462 98.94V97.284C136.354 96.96 136.18 96.684 135.94 96.456C135.712 96.216 135.436 96.03 135.112 95.898C134.8 95.766 134.446 95.7 134.05 95.7C133.594 95.7 133.18 95.802 132.808 96.006C132.448 96.21 132.16 96.492 131.944 96.852C131.74 97.212 131.638 97.626 131.638 98.094ZM143.073 94.386L143.253 96.546L143.181 96.24C143.397 95.784 143.691 95.394 144.063 95.07C144.447 94.734 144.837 94.482 145.233 94.314C145.629 94.134 145.953 94.044 146.205 94.044L146.115 96.06C145.539 96.012 145.035 96.12 144.603 96.384C144.183 96.636 143.853 96.972 143.613 97.392C143.385 97.812 143.271 98.256 143.271 98.724V102H141.255V94.386H143.073ZM151.262 102.198C150.542 102.198 149.888 102.048 149.3 101.748C148.724 101.448 148.268 101.004 147.932 100.416C147.596 99.816 147.428 99.078 147.428 98.202C147.428 97.338 147.602 96.6 147.95 95.988C148.31 95.364 148.778 94.884 149.354 94.548C149.942 94.212 150.578 94.044 151.262 94.044C151.994 94.044 152.582 94.188 153.026 94.476C153.482 94.764 153.836 95.106 154.088 95.502L153.98 95.79L154.178 94.386H156.032V102H154.016V100.146L154.214 100.632C154.166 100.704 154.07 100.824 153.926 100.992C153.782 101.148 153.584 101.322 153.332 101.514C153.08 101.706 152.78 101.868 152.432 102C152.096 102.132 151.706 102.198 151.262 102.198ZM151.82 100.542C152.18 100.542 152.504 100.476 152.792 100.344C153.092 100.212 153.344 100.026 153.548 99.786C153.764 99.546 153.92 99.258 154.016 98.922V97.266C153.92 96.954 153.764 96.684 153.548 96.456C153.332 96.216 153.068 96.03 152.756 95.898C152.456 95.766 152.12 95.7 151.748 95.7C151.34 95.7 150.962 95.802 150.614 96.006C150.266 96.21 149.984 96.492 149.768 96.852C149.564 97.212 149.462 97.626 149.462 98.094C149.462 98.55 149.57 98.964 149.786 99.336C150.002 99.708 150.29 100.002 150.65 100.218C151.01 100.434 151.4 100.542 151.82 100.542ZM160.634 94.386L160.814 95.934L160.742 95.808C161.03 95.256 161.42 94.824 161.912 94.512C162.416 94.2 162.998 94.044 163.658 94.044C164.078 94.044 164.45 94.11 164.774 94.242C165.098 94.374 165.368 94.56 165.584 94.8C165.812 95.04 165.962 95.34 166.034 95.7L165.926 95.736C166.238 95.22 166.64 94.812 167.132 94.512C167.624 94.2 168.146 94.044 168.698 94.044C169.442 94.044 170.036 94.26 170.48 94.692C170.924 95.112 171.152 95.658 171.164 96.33V102H169.166V97.122C169.154 96.75 169.076 96.444 168.932 96.204C168.788 95.952 168.518 95.814 168.122 95.79C167.69 95.79 167.318 95.928 167.006 96.204C166.694 96.468 166.448 96.816 166.268 97.248C166.1 97.668 166.016 98.118 166.016 98.598V102H163.982V97.122C163.97 96.75 163.886 96.444 163.73 96.204C163.574 95.952 163.298 95.814 162.902 95.79C162.482 95.79 162.116 95.928 161.804 96.204C161.492 96.468 161.252 96.816 161.084 97.248C160.916 97.668 160.832 98.112 160.832 98.58V102H158.816V94.386H160.634ZM175.751 94.386L175.931 95.934L175.859 95.808C176.147 95.256 176.537 94.824 177.029 94.512C177.533 94.2 178.115 94.044 178.775 94.044C179.195 94.044 179.567 94.11 179.891 94.242C180.215 94.374 180.485 94.56 180.701 94.8C180.929 95.04 181.079 95.34 181.151 95.7L181.043 95.736C181.355 95.22 181.757 94.812 182.249 94.512C182.741 94.2 183.263 94.044 183.815 94.044C184.559 94.044 185.153 94.26 185.597 94.692C186.041 95.112 186.269 95.658 186.281 96.33V102H184.283V97.122C184.271 96.75 184.193 96.444 184.049 96.204C183.905 95.952 183.635 95.814 183.239 95.79C182.807 95.79 182.435 95.928 182.123 96.204C181.811 96.468 181.565 96.816 181.385 97.248C181.217 97.668 181.133 98.118 181.133 98.598V102H179.099V97.122C179.087 96.75 179.003 96.444 178.847 96.204C178.691 95.952 178.415 95.814 178.019 95.79C177.599 95.79 177.233 95.928 176.921 96.204C176.609 96.468 176.369 96.816 176.201 97.248C176.033 97.668 175.949 98.112 175.949 98.58V102H173.933V94.386H175.751ZM189.05 94.386H191.066V102H189.05V94.386ZM188.96 91.668C188.96 91.356 189.08 91.098 189.32 90.894C189.572 90.69 189.842 90.588 190.13 90.588C190.418 90.588 190.676 90.69 190.904 90.894C191.144 91.098 191.264 91.356 191.264 91.668C191.264 91.98 191.144 92.238 190.904 92.442C190.676 92.634 190.418 92.73 190.13 92.73C189.842 92.73 189.572 92.628 189.32 92.424C189.08 92.22 188.96 91.968 188.96 91.668ZM195.649 94.386L195.829 96.024L195.757 95.808C196.021 95.28 196.411 94.86 196.927 94.548C197.455 94.224 198.079 94.062 198.799 94.062C199.519 94.062 200.113 94.272 200.581 94.692C201.049 95.112 201.289 95.664 201.301 96.348V102H199.285V97.068C199.273 96.684 199.165 96.378 198.961 96.15C198.757 95.91 198.433 95.784 197.989 95.772C197.581 95.772 197.215 95.898 196.891 96.15C196.567 96.39 196.309 96.726 196.117 97.158C195.937 97.578 195.847 98.064 195.847 98.616V102H193.831V94.386H195.649ZM207.877 105.798C207.253 105.798 206.719 105.726 206.275 105.582C205.831 105.438 205.435 105.246 205.087 105.006C204.751 104.778 204.433 104.538 204.133 104.286L205.321 102.9C205.669 103.224 206.035 103.494 206.419 103.71C206.815 103.926 207.289 104.034 207.841 104.034C208.333 104.034 208.759 103.95 209.119 103.782C209.491 103.614 209.779 103.38 209.983 103.08C210.187 102.78 210.295 102.42 210.307 102V100.11L210.433 100.488C210.229 100.956 209.857 101.358 209.317 101.694C208.777 102.03 208.105 102.198 207.301 102.198C206.605 102.198 205.963 102.024 205.375 101.676C204.787 101.316 204.319 100.83 203.971 100.218C203.623 99.606 203.449 98.916 203.449 98.148C203.449 97.356 203.629 96.654 203.989 96.042C204.361 95.418 204.847 94.932 205.447 94.584C206.059 94.224 206.707 94.044 207.391 94.044C208.063 94.044 208.657 94.164 209.173 94.404C209.701 94.644 210.097 94.944 210.361 95.304L210.253 95.592L210.469 94.386H212.323V102.036C212.323 102.744 212.131 103.38 211.747 103.944C211.375 104.52 210.853 104.97 210.181 105.294C209.521 105.63 208.753 105.798 207.877 105.798ZM205.483 98.094C205.483 98.55 205.585 98.964 205.789 99.336C206.005 99.708 206.293 100.002 206.653 100.218C207.025 100.434 207.439 100.542 207.895 100.542C208.291 100.542 208.645 100.476 208.957 100.344C209.281 100.212 209.557 100.026 209.785 99.786C210.025 99.546 210.199 99.264 210.307 98.94V97.284C210.199 96.96 210.025 96.684 209.785 96.456C209.557 96.216 209.281 96.03 208.957 95.898C208.645 95.766 208.291 95.7 207.895 95.7C207.439 95.7 207.025 95.802 206.653 96.006C206.293 96.21 206.005 96.492 205.789 96.852C205.585 97.212 205.483 97.626 205.483 98.094Z" fill="black"/>
    <path d="M391.5 17.198C390.78 17.198 390.138 17.03 389.574 16.694C389.01 16.358 388.566 15.878 388.242 15.254C387.918 14.63 387.756 13.904 387.756 13.076C387.756 12.224 387.93 11.498 388.278 10.898C388.626 10.298 389.1 9.842 389.7 9.53C390.312 9.206 390.996 9.044 391.752 9.044C392.304 9.044 392.832 9.152 393.336 9.368C393.84 9.572 394.242 9.872 394.542 10.268L394.506 10.952V2.96H396.504V17H394.488V15.29L394.686 15.776C394.302 16.184 393.84 16.526 393.3 16.802C392.772 17.066 392.172 17.198 391.5 17.198ZM392.148 15.488C392.544 15.488 392.892 15.422 393.192 15.29C393.504 15.158 393.768 14.972 393.984 14.732C394.212 14.48 394.38 14.186 394.488 13.85V12.23C394.392 11.918 394.23 11.642 394.002 11.402C393.786 11.162 393.516 10.976 393.192 10.844C392.868 10.712 392.52 10.646 392.148 10.646C391.716 10.646 391.32 10.748 390.96 10.952C390.612 11.156 390.33 11.438 390.114 11.798C389.898 12.158 389.79 12.572 389.79 13.04C389.79 13.496 389.898 13.91 390.114 14.282C390.33 14.654 390.618 14.948 390.978 15.164C391.338 15.38 391.728 15.488 392.148 15.488ZM402.92 17.198C402.02 17.198 401.252 17.024 400.616 16.676C399.98 16.328 399.494 15.848 399.158 15.236C398.822 14.612 398.654 13.91 398.654 13.13C398.654 12.362 398.846 11.672 399.23 11.06C399.614 10.448 400.13 9.962 400.778 9.602C401.438 9.23 402.164 9.044 402.956 9.044C404 9.044 404.858 9.35 405.53 9.962C406.214 10.562 406.67 11.414 406.898 12.518L400.76 14.588L400.292 13.454L405.08 11.744L404.666 11.978C404.534 11.618 404.318 11.306 404.018 11.042C403.73 10.778 403.322 10.646 402.794 10.646C402.374 10.646 402.002 10.748 401.678 10.952C401.354 11.144 401.096 11.42 400.904 11.78C400.724 12.128 400.634 12.542 400.634 13.022C400.634 13.514 400.736 13.946 400.94 14.318C401.144 14.69 401.42 14.978 401.768 15.182C402.116 15.374 402.512 15.47 402.956 15.47C403.268 15.47 403.568 15.416 403.856 15.308C404.144 15.2 404.414 15.056 404.666 14.876L405.584 16.37C405.188 16.622 404.75 16.826 404.27 16.982C403.802 17.126 403.352 17.198 402.92 17.198ZM411.841 17.198L407.467 9.386H409.861L412.615 15.11L411.373 15.056L413.857 9.386H416.107L411.931 17.198H411.841ZM421.184 17.198C420.284 17.198 419.516 17.024 418.88 16.676C418.244 16.328 417.758 15.848 417.422 15.236C417.086 14.612 416.918 13.91 416.918 13.13C416.918 12.362 417.11 11.672 417.494 11.06C417.878 10.448 418.394 9.962 419.042 9.602C419.702 9.23 420.428 9.044 421.22 9.044C422.264 9.044 423.122 9.35 423.794 9.962C424.478 10.562 424.934 11.414 425.162 12.518L419.024 14.588L418.556 13.454L423.344 11.744L422.93 11.978C422.798 11.618 422.582 11.306 422.282 11.042C421.994 10.778 421.586 10.646 421.058 10.646C420.638 10.646 420.266 10.748 419.942 10.952C419.618 11.144 419.36 11.42 419.168 11.78C418.988 12.128 418.898 12.542 418.898 13.022C418.898 13.514 419 13.946 419.204 14.318C419.408 14.69 419.684 14.978 420.032 15.182C420.38 15.374 420.776 15.47 421.22 15.47C421.532 15.47 421.832 15.416 422.12 15.308C422.408 15.2 422.678 15.056 422.93 14.876L423.848 16.37C423.452 16.622 423.014 16.826 422.534 16.982C422.066 17.126 421.616 17.198 421.184 17.198ZM427.146 2.96H429.162V17H427.146V2.96ZM431.297 13.112C431.297 12.344 431.477 11.654 431.837 11.042C432.197 10.418 432.701 9.932 433.349 9.584C434.009 9.224 434.753 9.044 435.581 9.044C436.433 9.044 437.171 9.224 437.795 9.584C438.431 9.932 438.923 10.418 439.271 11.042C439.619 11.654 439.793 12.344 439.793 13.112C439.793 13.88 439.619 14.576 439.271 15.2C438.923 15.812 438.431 16.298 437.795 16.658C437.171 17.018 436.427 17.198 435.563 17.198C434.747 17.198 434.015 17.036 433.367 16.712C432.719 16.376 432.209 15.902 431.837 15.29C431.477 14.678 431.297 13.952 431.297 13.112ZM433.331 13.13C433.331 13.574 433.427 13.982 433.619 14.354C433.811 14.714 434.075 15.002 434.411 15.218C434.747 15.434 435.119 15.542 435.527 15.542C435.971 15.542 436.355 15.434 436.679 15.218C437.015 15.002 437.273 14.714 437.453 14.354C437.645 13.982 437.741 13.574 437.741 13.13C437.741 12.674 437.645 12.266 437.453 11.906C437.273 11.534 437.015 11.24 436.679 11.024C436.355 10.808 435.971 10.7 435.527 10.7C435.107 10.7 434.729 10.814 434.393 11.042C434.069 11.258 433.811 11.546 433.619 11.906C433.427 12.266 433.331 12.674 433.331 13.13ZM446.537 17.198C446.009 17.198 445.499 17.084 445.007 16.856C444.515 16.628 444.119 16.316 443.819 15.92L443.927 15.308V20.654H441.911V9.242H443.657L443.927 11.006L443.747 10.466C444.119 10.058 444.569 9.722 445.097 9.458C445.637 9.182 446.243 9.044 446.915 9.044C447.635 9.044 448.277 9.212 448.841 9.548C449.405 9.884 449.849 10.364 450.173 10.988C450.509 11.6 450.677 12.326 450.677 13.166C450.677 14.006 450.497 14.726 450.137 15.326C449.777 15.926 449.285 16.388 448.661 16.712C448.037 17.036 447.329 17.198 446.537 17.198ZM446.141 15.596C446.585 15.596 446.993 15.494 447.365 15.29C447.749 15.086 448.055 14.804 448.283 14.444C448.511 14.072 448.625 13.658 448.625 13.202C448.625 12.722 448.517 12.302 448.301 11.942C448.097 11.57 447.815 11.282 447.455 11.078C447.107 10.862 446.717 10.754 446.285 10.754C445.889 10.754 445.535 10.82 445.223 10.952C444.911 11.084 444.647 11.276 444.431 11.528C444.215 11.768 444.047 12.056 443.927 12.392V13.922C444.011 14.246 444.155 14.534 444.359 14.786C444.563 15.038 444.821 15.236 445.133 15.38C445.445 15.524 445.781 15.596 446.141 15.596ZM454.628 9.386L454.808 10.934L454.736 10.808C455.024 10.256 455.414 9.824 455.906 9.512C456.41 9.2 456.992 9.044 457.652 9.044C458.072 9.044 458.444 9.11 458.768 9.242C459.092 9.374 459.362 9.56 459.578 9.8C459.806 10.04 459.956 10.34 460.028 10.7L459.92 10.736C460.232 10.22 460.634 9.812 461.126 9.512C461.618 9.2 462.14 9.044 462.692 9.044C463.436 9.044 464.03 9.26 464.474 9.692C464.918 10.112 465.146 10.658 465.158 11.33V17H463.16V12.122C463.148 11.75 463.07 11.444 462.926 11.204C462.782 10.952 462.512 10.814 462.116 10.79C461.684 10.79 461.312 10.928 461 11.204C460.688 11.468 460.442 11.816 460.262 12.248C460.094 12.668 460.01 13.118 460.01 13.598V17H457.976V12.122C457.964 11.75 457.88 11.444 457.724 11.204C457.568 10.952 457.292 10.814 456.896 10.79C456.476 10.79 456.11 10.928 455.798 11.204C455.486 11.468 455.246 11.816 455.078 12.248C454.91 12.668 454.826 13.112 454.826 13.58V17H452.81V9.386H454.628ZM471.563 17.198C470.663 17.198 469.895 17.024 469.259 16.676C468.623 16.328 468.137 15.848 467.801 15.236C467.465 14.612 467.297 13.91 467.297 13.13C467.297 12.362 467.489 11.672 467.873 11.06C468.257 10.448 468.773 9.962 469.421 9.602C470.081 9.23 470.807 9.044 471.599 9.044C472.643 9.044 473.501 9.35 474.173 9.962C474.857 10.562 475.313 11.414 475.541 12.518L469.403 14.588L468.935 13.454L473.723 11.744L473.309 11.978C473.177 11.618 472.961 11.306 472.661 11.042C472.373 10.778 471.965 10.646 471.437 10.646C471.017 10.646 470.645 10.748 470.321 10.952C469.997 11.144 469.739 11.42 469.547 11.78C469.367 12.128 469.277 12.542 469.277 13.022C469.277 13.514 469.379 13.946 469.583 14.318C469.787 14.69 470.063 14.978 470.411 15.182C470.759 15.374 471.155 15.47 471.599 15.47C471.911 15.47 472.211 15.416 472.499 15.308C472.787 15.2 473.057 15.056 473.309 14.876L474.227 16.37C473.831 16.622 473.393 16.826 472.913 16.982C472.445 17.126 471.995 17.198 471.563 17.198ZM479.343 9.386L479.523 11.024L479.451 10.808C479.715 10.28 480.105 9.86 480.621 9.548C481.149 9.224 481.773 9.062 482.493 9.062C483.213 9.062 483.807 9.272 484.275 9.692C484.743 10.112 484.983 10.664 484.995 11.348V17H482.979V12.068C482.967 11.684 482.859 11.378 482.655 11.15C482.451 10.91 482.127 10.784 481.683 10.772C481.275 10.772 480.909 10.898 480.585 11.15C480.261 11.39 480.003 11.726 479.811 12.158C479.631 12.578 479.541 13.064 479.541 13.616V17H477.525V9.386H479.343ZM488.493 6.038H490.527V9.386H492.507V10.97H490.527V17H488.493V10.97H487.197V9.386H488.493V6.038Z" fill="black"/>
    <path d="M800.508 90.896C801.504 90.896 802.356 91.064 803.064 91.4C803.772 91.736 804.312 92.216 804.684 92.84C805.068 93.464 805.26 94.22 805.26 95.108C805.26 95.624 805.176 96.14 805.008 96.656C804.852 97.172 804.6 97.64 804.252 98.06C803.916 98.48 803.46 98.822 802.884 99.086C802.32 99.338 801.624 99.464 800.796 99.464H798.906V104H796.8V90.896H800.508ZM800.796 97.43C801.252 97.43 801.636 97.352 801.948 97.196C802.26 97.04 802.5 96.842 802.668 96.602C802.848 96.362 802.974 96.116 803.046 95.864C803.13 95.6 803.172 95.366 803.172 95.162C803.172 94.946 803.136 94.712 803.064 94.46C802.992 94.196 802.872 93.95 802.704 93.722C802.536 93.482 802.302 93.29 802.002 93.146C801.702 92.99 801.318 92.912 800.85 92.912H798.906V97.43H800.796ZM807.804 90.896H816.498V92.912H809.91V96.404H815.778V98.438H809.91V101.984H816.75V104H807.804V90.896ZM829.372 102.974C829.192 103.106 828.91 103.268 828.526 103.46C828.142 103.652 827.686 103.82 827.158 103.964C826.642 104.096 826.066 104.156 825.43 104.144C824.41 104.132 823.492 103.952 822.676 103.604C821.86 103.244 821.17 102.764 820.606 102.164C820.042 101.552 819.604 100.856 819.292 100.076C818.992 99.284 818.842 98.444 818.842 97.556C818.842 96.56 818.998 95.648 819.31 94.82C819.622 93.992 820.066 93.278 820.642 92.678C821.218 92.066 821.902 91.592 822.694 91.256C823.486 90.92 824.35 90.752 825.286 90.752C826.114 90.752 826.852 90.866 827.5 91.094C828.16 91.31 828.712 91.556 829.156 91.832L828.328 93.812C827.992 93.572 827.572 93.338 827.068 93.11C826.564 92.882 825.994 92.768 825.358 92.768C824.782 92.768 824.23 92.888 823.702 93.128C823.174 93.356 822.712 93.686 822.316 94.118C821.92 94.538 821.602 95.03 821.362 95.594C821.134 96.158 821.02 96.77 821.02 97.43C821.02 98.114 821.122 98.744 821.326 99.32C821.542 99.884 821.842 100.376 822.226 100.796C822.622 101.216 823.09 101.546 823.63 101.786C824.182 102.014 824.794 102.128 825.466 102.128C826.15 102.128 826.744 102.026 827.248 101.822C827.764 101.606 828.178 101.366 828.49 101.102L829.372 102.974ZM836.565 104L842.361 90.356H842.487L848.283 104H845.871L841.785 93.65L843.297 92.624L838.635 104H836.565ZM840.201 99.14H844.683L845.403 100.922H839.571L840.201 99.14ZM859.448 102.974C859.268 103.106 858.986 103.268 858.602 103.46C858.218 103.652 857.762 103.82 857.234 103.964C856.718 104.096 856.142 104.156 855.506 104.144C854.486 104.132 853.568 103.952 852.752 103.604C851.936 103.244 851.246 102.764 850.682 102.164C850.118 101.552 849.68 100.856 849.368 100.076C849.068 99.284 848.918 98.444 848.918 97.556C848.918 96.56 849.074 95.648 849.386 94.82C849.698 93.992 850.142 93.278 850.718 92.678C851.294 92.066 851.978 91.592 852.77 91.256C853.562 90.92 854.426 90.752 855.362 90.752C856.19 90.752 856.928 90.866 857.576 91.094C858.236 91.31 858.788 91.556 859.232 91.832L858.404 93.812C858.068 93.572 857.648 93.338 857.144 93.11C856.64 92.882 856.07 92.768 855.434 92.768C854.858 92.768 854.306 92.888 853.778 93.128C853.25 93.356 852.788 93.686 852.392 94.118C851.996 94.538 851.678 95.03 851.438 95.594C851.21 96.158 851.096 96.77 851.096 97.43C851.096 98.114 851.198 98.744 851.402 99.32C851.618 99.884 851.918 100.376 852.302 100.796C852.698 101.216 853.166 101.546 853.706 101.786C854.258 102.014 854.87 102.128 855.542 102.128C856.226 102.128 856.82 102.026 857.324 101.822C857.84 101.606 858.254 101.366 858.566 101.102L859.448 102.974ZM862.243 104V90.428H862.261L869.317 100.418L868.417 100.22L875.437 90.428H875.473V104H873.385V95.162L873.529 96.242L868.795 102.938H868.759L863.917 96.242L864.277 95.252V104H862.243Z" fill="black"/>
    <path d="M224.141 97C278.256 97 499.896 97 499.896 97" stroke="#99C8FF" stroke-width="5"/>
    <path d="M229.975 97C229.975 100.466 227.291 103.143 224.141 103.143C220.991 103.143 218.307 100.466 218.307 97C218.307 93.5338 220.991 90.8571 224.141 90.8571C227.291 90.8571 229.975 93.5338 229.975 97Z" fill="#0075FF" stroke="white" stroke-width="4"/>
    <path d="M224.663 10.1429C224.663 10.1429 258.349 10.1429 317.104 10.1429C375.858 10.1429 352.357 97 406.933 97C461.51 97 499.896 97 499.896 97" stroke="#99C8FF" stroke-width="5"/>
    <path d="M134.834 183.857C134.834 183.857 168.52 183.857 227.275 183.857C286.029 183.857 262.527 97 317.104 97C371.68 97 410.067 97 410.067 97" stroke="#99C8FF" stroke-width="5"/>
    <path d="M230.497 10.1429C230.497 13.6091 227.813 16.2857 224.663 16.2857C221.513 16.2857 218.829 13.6091 218.829 10.1429C218.829 6.67664 221.513 4 224.663 4C227.813 4 230.497 6.67664 230.497 10.1429Z" fill="#56BAF8" stroke="white" stroke-width="4"/>
    <path d="M140.668 183.857C140.668 180.391 137.984 177.714 134.834 177.714C131.684 177.714 129 180.391 129 183.857C129 187.323 131.684 190 134.834 190C137.984 190 140.668 187.323 140.668 183.857Z" fill="#56BAF8" stroke="white" stroke-width="4"/>
    <path d="M266.533 10.1429C266.533 13.6091 263.849 16.2857 260.699 16.2857C257.55 16.2857 254.865 13.6091 254.865 10.1429C254.865 6.67664 257.55 4 260.699 4C263.849 4 266.533 6.67664 266.533 10.1429Z" fill="#56BAF8" stroke="white" stroke-width="4"/>
    <path d="M426.346 97C426.346 100.466 423.662 103.143 420.512 103.143C417.362 103.143 414.678 100.466 414.678 97C414.678 93.5338 417.362 90.8571 420.512 90.8571C423.662 90.8571 426.346 93.5338 426.346 97Z" fill="#1F75CB" stroke="white" stroke-width="4"/>
    <path d="M328.16 97C328.16 100.466 325.476 103.143 322.326 103.143C319.177 103.143 316.492 100.466 316.492 97C316.492 93.5338 319.177 90.8571 322.326 90.8571C325.476 90.8571 328.16 93.5338 328.16 97Z" fill="#1F75CB" stroke="white" stroke-width="4"/>
    <path d="M475.961 97C475.961 100.466 473.277 103.143 470.127 103.143C466.977 103.143 464.293 100.466 464.293 97C464.293 93.5338 466.977 90.8571 470.127 90.8571C473.277 90.8571 475.961 93.5338 475.961 97Z" fill="#1F75CB" stroke="white" stroke-width="4"/>
    <path d="M505.208 97C505.208 100.466 502.523 103.143 499.374 103.143C496.224 103.143 493.54 100.466 493.54 97C493.54 93.5338 496.224 90.8571 499.374 90.8571C502.523 90.8571 505.208 93.5338 505.208 97Z" fill="#1F75CB" stroke="white" stroke-width="4"/>
    <path d="M499.933 97C554.049 97 775.688 97 775.688 97" stroke="#99C8FF" stroke-width="5"/>
    <path d="M505.767 97C505.767 100.466 503.083 103.143 499.933 103.143C496.784 103.143 494.099 100.466 494.099 97C494.099 93.5338 496.784 90.8571 499.933 90.8571C503.083 90.8571 505.767 93.5338 505.767 97Z" fill="#0075FF" stroke="white" stroke-width="4"/>
    <path d="M500.456 10.1429C500.456 10.1429 534.142 10.1429 592.896 10.1429C651.651 10.1429 628.149 97 682.725 97C737.302 97 775.688 97 775.688 97" stroke="#99C8FF" stroke-width="5"/>
    <path d="M410.626 183.857C410.626 183.857 444.312 183.857 503.067 183.857C561.822 183.857 538.32 97 592.896 97C647.473 97 685.859 97 685.859 97" stroke="#99C8FF" stroke-width="5"/>
    <path d="M506.29 10.1429C506.29 13.6091 503.605 16.2857 500.456 16.2857C497.306 16.2857 494.622 13.6091 494.622 10.1429C494.622 6.67664 497.306 4 500.456 4C503.605 4 506.29 6.67664 506.29 10.1429Z" fill="#56BAF8" stroke="white" stroke-width="4"/>
    <path d="M416.46 183.857C416.46 180.391 413.776 177.714 410.626 177.714C407.477 177.714 404.792 180.391 404.792 183.857C404.792 187.323 407.477 190 410.626 190C413.776 190 416.46 187.323 416.46 183.857Z" fill="#56BAF8" stroke="white" stroke-width="4"/>
    <path d="M542.326 10.1429C542.326 13.6091 539.642 16.2857 536.492 16.2857C533.342 16.2857 530.658 13.6091 530.658 10.1429C530.658 6.67664 533.342 4 536.492 4C539.642 4 542.326 6.67664 542.326 10.1429Z" fill="#56BAF8" stroke="white" stroke-width="4"/>
    <path d="M702.138 97C702.138 100.466 699.454 103.143 696.304 103.143C693.155 103.143 690.47 100.466 690.47 97C690.47 93.5338 693.155 90.8571 696.304 90.8571C699.454 90.8571 702.138 93.5338 702.138 97Z" fill="#1F75CB" stroke="white" stroke-width="4"/>
    <path d="M603.953 97C603.953 100.466 601.269 103.143 598.119 103.143C594.969 103.143 592.285 100.466 592.285 97C592.285 93.5338 594.969 90.8571 598.119 90.8571C601.269 90.8571 603.953 93.5338 603.953 97Z" fill="#1F75CB" stroke="white" stroke-width="4"/>
    <path d="M751.753 97C751.753 100.466 749.069 103.143 745.919 103.143C742.769 103.143 740.085 100.466 740.085 97C740.085 93.5338 742.769 90.8571 745.919 90.8571C749.069 90.8571 751.753 93.5338 751.753 97Z" fill="#1F75CB" stroke="white" stroke-width="4"/>
    <path d="M781 97C781 100.466 778.316 103.143 775.166 103.143C772.016 103.143 769.332 100.466 769.332 97C769.332 93.5338 772.016 90.8571 775.166 90.8571C778.316 90.8571 781 93.5338 781 97Z" fill="#1F75CB" stroke="white" stroke-width="4"/>
</svg>
