<?xml version="1.0" standalone="no"?>
<!DOCTYPE svg PUBLIC "-//W3C//DTD SVG 20010904//EN"
 "http://www.w3.org/TR/2001/REC-SVG-20010904/DTD/svg10.dtd">
<svg version="1.0" xmlns="http://www.w3.org/2000/svg"
 width="1080.000000pt" height="1080.000000pt" viewBox="0 0 1080.000000 1080.000000"
 preserveAspectRatio="xMidYMid meet">
<metadata>
Created by potrace 1.14, written by Peter Selinger 2001-2017
</metadata>
<g transform="translate(0.000000,1080.000000) scale(0.100000,-0.100000)"
fill="#000000" stroke="none">
<path d="M5307 10539 c-110 -26 -29 52 -2535 -2453 -1316 -1315 -2412 -2416
-2436 -2446 -92 -118 -110 -272 -48 -405 32 -67 116 -153 2455 -2491 1648
-1648 2435 -2428 2464 -2443 140 -70 300 -64 413 17 19 14 1120 1110 2446
2436 1912 1912 2417 2421 2436 2461 59 117 61 239 8 353 -30 64 -153 188
-2453 2488 -1726 1726 -2435 2428 -2466 2444 -90 45 -197 60 -284 39z"/>
</g>
</svg>
