<svg width="64" height="51" viewBox="0 0 64 51" fill="none" xmlns="http://www.w3.org/2000/svg">
    <rect x="13.5919" y="24.9099" width="35.2279" height="35.2279" rx="5" transform="rotate(-45 13.5919 24.9099)" fill="#E4F1FF"/>
    <rect x="6.59186" y="24.9099" width="35.2279" height="35.2279" rx="5" transform="rotate(-45 6.59186 24.9099)" fill="#B1D5FF"/>
    <rect y="25.318" width="35.2279" height="35.2279" rx="5" transform="rotate(-45 0 25.318)" fill="#0075FF"/>
    <path d="M18.1419 28.11C17.7419 28.11 17.3785 28.0267 17.0519 27.86C16.7319 27.6933 16.4785 27.4467 16.2919 27.12C16.1052 26.7867 16.0119 26.3767 16.0119 25.89C16.0119 25.41 16.1085 25 16.3019 24.66C16.5019 24.3133 16.7619 24.0467 17.0819 23.86C17.4085 23.6733 17.7619 23.58 18.1419 23.58C18.5485 23.58 18.8752 23.66 19.1219 23.82C19.3752 23.98 19.5719 24.17 19.7119 24.39L19.6519 24.55L19.7619 23.77H20.7919V28H19.6719V26.97L19.7819 27.24C19.7552 27.28 19.7019 27.3467 19.6219 27.44C19.5419 27.5267 19.4319 27.6233 19.2919 27.73C19.1519 27.8367 18.9852 27.9267 18.7919 28C18.6052 28.0733 18.3885 28.11 18.1419 28.11ZM18.4519 27.19C18.6519 27.19 18.8319 27.1533 18.9919 27.08C19.1585 27.0067 19.2985 26.9033 19.4119 26.77C19.5319 26.6367 19.6185 26.4767 19.6719 26.29V25.37C19.6185 25.1967 19.5319 25.0467 19.4119 24.92C19.2919 24.7867 19.1452 24.6833 18.9719 24.61C18.8052 24.5367 18.6185 24.5 18.4119 24.5C18.1852 24.5 17.9752 24.5567 17.7819 24.67C17.5885 24.7833 17.4319 24.94 17.3119 25.14C17.1985 25.34 17.1419 25.57 17.1419 25.83C17.1419 26.0833 17.2019 26.3133 17.3219 26.52C17.4419 26.7267 17.6019 26.89 17.8019 27.01C18.0019 27.13 18.2185 27.19 18.4519 27.19ZM25.8384 27.61C25.6518 27.7633 25.4218 27.8867 25.1484 27.98C24.8818 28.0667 24.6118 28.11 24.3384 28.11C23.8718 28.11 23.4618 28.02 23.1084 27.84C22.7551 27.6533 22.4784 27.3967 22.2784 27.07C22.0851 26.7367 21.9884 26.34 21.9884 25.88C21.9884 25.42 22.0918 25.0233 22.2984 24.69C22.5118 24.3567 22.7884 24.1033 23.1284 23.93C23.4751 23.75 23.8418 23.66 24.2284 23.66C24.5818 23.66 24.8951 23.71 25.1684 23.81C25.4418 23.9033 25.6784 24.0333 25.8784 24.2L25.3184 24.93C25.2118 24.8433 25.0718 24.7633 24.8984 24.69C24.7318 24.61 24.5418 24.57 24.3284 24.57C24.1018 24.57 23.8951 24.6267 23.7084 24.74C23.5284 24.8533 23.3818 25.01 23.2684 25.21C23.1618 25.4033 23.1084 25.6267 23.1084 25.88C23.1084 26.12 23.1651 26.34 23.2784 26.54C23.3918 26.74 23.5484 26.9 23.7484 27.02C23.9484 27.1333 24.1784 27.19 24.4384 27.19C24.6051 27.19 24.7584 27.1667 24.8984 27.12C25.0451 27.0667 25.1718 26.9967 25.2784 26.91L25.8384 27.61ZM27.9969 23.77L28.0969 24.63L28.0569 24.56C28.2169 24.2533 28.4335 24.0133 28.7069 23.84C28.9869 23.6667 29.3102 23.58 29.6769 23.58C29.9102 23.58 30.1169 23.6167 30.2969 23.69C30.4769 23.7633 30.6269 23.8667 30.7469 24C30.8735 24.1333 30.9569 24.3 30.9969 24.5L30.9369 24.52C31.1102 24.2333 31.3335 24.0067 31.6069 23.84C31.8802 23.6667 32.1702 23.58 32.4769 23.58C32.8902 23.58 33.2202 23.7 33.4669 23.94C33.7135 24.1733 33.8402 24.4767 33.8469 24.85V28H32.7369V25.29C32.7302 25.0833 32.6869 24.9133 32.6069 24.78C32.5269 24.64 32.3769 24.5633 32.1569 24.55C31.9169 24.55 31.7102 24.6267 31.5369 24.78C31.3635 24.9267 31.2269 25.12 31.1269 25.36C31.0335 25.5933 30.9869 25.8433 30.9869 26.11V28H29.8569V25.29C29.8502 25.0833 29.8035 24.9133 29.7169 24.78C29.6302 24.64 29.4769 24.5633 29.2569 24.55C29.0235 24.55 28.8202 24.6267 28.6469 24.78C28.4735 24.9267 28.3402 25.12 28.2469 25.36C28.1535 25.5933 28.1069 25.84 28.1069 26.1V28H26.9869V23.77H27.9969Z" fill="white"/>
</svg>
